<?xml version="1.0" encoding="UTF-8"?>
<svg width="30px" height="30px" viewBox="0 0 30 30" version="1.1" xmlns="http://www.w3.org/2000/svg" xmlns:xlink="http://www.w3.org/1999/xlink">
    <!-- Generator: Sketch 63.1 (92452) - https://sketch.com -->
    <title>Air Conditioners</title>
    <desc>Created with Sketch.</desc>
    <defs>
        <rect id="path-1" x="0" y="0" width="30" height="30"></rect>
    </defs>
    <g id="Air-Conditioners" stroke="none" stroke-width="1" fill="none" fill-rule="evenodd">
        <g>
            <mask id="mask-2" fill="white">
                <use xlink:href="#path-1"></use>
            </mask>
            <use id="Background" fill="#D8D8D8" opacity="0" xlink:href="#path-1"></use>
            <path d="M28.638135,25.8499765 L1.3620339,25.8499765 C0.61101693,25.8499765 0,25.2391298 0,24.4881134 L0,5.5120109 C0,4.760994 0.61101693,4.1501465 1.3620339,4.1501465 L28.638135,4.1501465 C29.389152,4.1501465 30,4.760994 30,5.5120109 L30,24.4881134 C30,25.2389614 29.389152,25.8499765 28.638135,25.8499765 L28.638135,25.8499765 Z M1.36204947,4.99743654 C1.07832062,4.99743654 0.84747314,5.22828392 0.84747314,5.51201268 L0.84747314,24.4881136 C0.84747314,24.7718419 1.07832062,25.0025215 1.36204947,25.0025215 L28.6381527,25.0025215 C28.9218812,25.0025215 29.1525591,24.7718441 29.1525591,24.4881136 L29.1525591,5.51201268 C29.1525591,5.22828392 28.921884,4.99743654 28.6381527,4.99743654 L1.36204947,4.99743654 L1.36204947,4.99743654 Z M26.8094733,22.0762784 L19.4082868,22.0762784 C19.1742196,22.0762784 18.984558,21.8866168 18.984558,21.6525495 C18.984558,21.4184821 19.1742196,21.2288205 19.4082868,21.2288205 L26.8094733,21.2288205 C27.0435409,21.2288205 27.233202,21.4184821 27.233202,21.6525495 C27.233202,21.8866168 27.0435432,22.0762784 26.8094733,22.0762784 L26.8094733,22.0762784 Z M9.8432393,22.0762481 C5.94137499,22.0762481 2.7669678,18.901841 2.7669678,14.9999771 C2.7669678,11.0981136 5.94137499,7.9237061 9.8432393,7.9237061 C13.7451035,7.9237061 16.9195108,11.0981136 16.9195108,14.9999771 C16.9195108,18.901841 13.7452747,22.0762481 9.8432393,22.0762481 L9.8432393,22.0762481 Z M9.843194,8.7711792 C6.40861736,8.7711792 3.61438,11.5654161 3.61438,14.9999922 C3.61438,18.4345684 6.40861736,21.2288052 9.843194,21.2288052 C13.2777708,21.2288052 16.072008,18.4345684 16.072008,14.9999922 C16.072008,11.5654161 13.2777695,8.7711792 9.843194,8.7711792 L9.843194,8.7711792 Z M11.7111754,20.3189585 C11.7079549,20.3189585 11.7050726,20.3189585 11.7020225,20.3189585 C10.9849036,20.3159078 10.3176156,19.9804835 9.8233784,19.3742123 C9.13897112,18.5350613 9.2065985,17.1469251 9.27812427,16.5304841 C9.12744632,16.4745515 8.98710736,16.397263 8.86117523,16.3018398 C8.71575118,16.3225183 8.31693823,16.4116707 7.97642914,16.7884508 C7.76168372,17.0259083 7.74592049,17.2270942 7.72405649,17.5054003 C7.69846312,17.8289588 7.66354824,18.2718418 7.20320868,18.6374341 C6.84270061,18.923706 6.39168302,19.0318422 5.96558126,18.9350611 C5.37829323,18.8011627 4.87592011,18.3116709 4.47236071,17.4798071 C3.73981822,15.9699764 3.9008353,14.9684504 4.16507259,14.3938742 C4.46473359,13.7421789 5.046259,13.2738739 5.80286968,13.0747221 C6.92354756,12.7801459 8.26117447,13.530145 8.7189717,13.8187899 C8.8116836,13.7304838 8.91490351,13.6528582 9.0262599,13.5881119 C9.02659872,13.5876035 9.0269381,13.5869245 9.0272768,13.5864166 C9.0343956,13.5709921 9.24676817,13.1108234 9.03541251,12.5243826 C8.92676847,12.2233654 8.7567684,12.1147218 8.52151381,11.9642129 C8.24812403,11.7894676 7.87354806,11.5501451 7.76761603,10.9720102 C7.68473505,10.5194681 7.8010055,10.0703152 8.08727713,9.73997599 C8.48168397,9.28472157 9.14998919,9.07116251 10.0742266,9.10709438 C11.7510059,9.17116191 12.558973,9.78455236 12.9416841,10.2877724 C13.3757515,10.8586193 13.5154132,11.5923485 13.3349041,12.3535358 C13.0842266,13.4116709 11.9325312,14.2048929 11.4028705,14.5204861 C11.4494803,14.6721802 11.4747348,14.8330288 11.4747348,14.9998081 C11.4747348,15.0672664 11.4706665,15.1337069 11.4627011,15.199131 C11.4637178,15.201165 11.4649044,15.2033684 11.4659212,15.2054029 C11.4737175,15.220487 11.7098199,15.6689621 12.3037179,15.8579446 C12.6093116,15.9550635 12.7986325,15.8862504 13.0610061,15.7908257 C13.3660915,15.6801476 13.7833794,15.5284534 14.307277,15.7962492 C14.7169378,16.0057403 15.0025308,16.3715025 15.0904977,16.7994691 C15.2120246,17.3893 14.9742269,18.0494687 14.3840576,18.7611636 C13.3177847,20.0472626 12.3435486,20.3189585 11.7111754,20.3189585 L11.7111754,20.3189585 Z M10.122887,16.6072738 C10.0552601,17.1910027 10.0339037,18.2913412 10.4801753,18.83863 C10.6720398,19.0738843 11.0862764,19.4689692 11.7054287,19.4715117 C11.7074629,19.4715117 11.7093275,19.4715117 11.711191,19.4715117 C12.354411,19.4715117 13.0527164,19.0391381 13.7311905,18.2206645 C14.1372916,17.7308341 14.3252578,17.2869353 14.260174,16.9706645 C14.2108519,16.731342 14.0264456,16.6050717 13.9210215,16.5511733 C13.7349198,16.456089 13.6293266,16.4865975 13.3496653,16.5879534 C13.0444108,16.6986313 12.6264453,16.8501563 12.046614,16.66575 C11.605767,16.5255798 11.2884785,16.2881234 11.0732236,16.0704955 C10.8322091,16.3472731 10.4993277,16.5420192 10.122887,16.6072738 L10.122887,16.6072738 Z M6.34781632,13.8550415 C6.2327315,13.8550415 6.12205352,13.8672447 6.01849424,13.8945333 C5.72510449,13.9718217 5.193918,14.1852107 4.93510438,14.7480931 C4.66578223,15.333856 4.76934156,16.1506357 5.23493473,17.1099569 C5.51273135,17.6823297 5.83900236,18.0372452 6.15391787,18.1089394 C6.39188394,18.1636848 6.58340948,18.047753 6.67629081,17.9740246 C6.83951154,17.8443637 6.85595205,17.7352116 6.87934136,17.4387707 C6.90476549,17.1150417 6.93984959,16.6718215 7.34798526,16.2202958 C7.66629014,15.8679226 8.02408681,15.6763977 8.3156123,15.5723301 C8.24849368,15.3941941 8.21205302,15.2013127 8.21205302,15.000127 C8.21205302,14.841314 8.2349341,14.6877536 8.27747703,14.5425003 C7.8740877,14.2877523 7.03391798,13.8550415 6.34781632,13.8550415 L6.34781632,13.8550415 Z M9.84322435,14.2160645 C9.41102105,14.2160645 9.059326,14.5677589 9.059326,14.9999628 C9.059326,15.4321668 9.41102105,15.7838612 9.84322435,15.7838612 C10.2754276,15.7838612 10.6271227,15.4321668 10.6271227,14.9999628 C10.6271227,14.5677589 10.2754276,14.2160645 9.84322435,14.2160645 L9.84322435,14.2160645 Z M9.95251386,13.3721606 C10.3365815,13.3975844 10.6843784,13.5565671 10.9506496,13.8030079 C11.4540396,13.5033474 12.346751,12.8482619 12.5103111,12.1582619 C12.5803115,11.8628376 12.6416674,11.2936861 12.2669217,10.8006346 C11.876752,10.2874144 11.1072603,9.99470231 10.041668,9.95385532 C9.40505768,9.92961777 8.93912538,10.0504654 8.72776984,10.294703 C8.56793918,10.4794488 8.57980354,10.7024992 8.60115938,10.8191101 C8.63878652,11.0240259 8.72726098,11.0899581 8.97793896,11.2499581 C9.251498,11.4248729 9.62624416,11.6643647 9.83268459,12.2367373 C9.98963223,12.6724986 9.9942086,13.0689401 9.95251386,13.3721606 L9.95251386,13.3721606 Z M26.8094733,19.4152074 L19.4082868,19.4152074 C19.1742196,19.4152074 18.984558,19.2255458 18.984558,18.9914784 C18.984558,18.7574111 19.1742196,18.5677495 19.4082868,18.5677495 L26.8094733,18.5677495 C27.0435409,18.5677495 27.233202,18.7574111 27.233202,18.9914784 C27.233202,19.2255458 27.0435432,19.4152074 26.8094733,19.4152074 L26.8094733,19.4152074 Z M26.8094733,16.7541964 L19.4082868,16.7541964 C19.1742196,16.7541964 18.984558,16.5645348 18.984558,16.3304675 C18.984558,16.0964001 19.1742196,15.9067385 19.4082868,15.9067385 L26.8094733,15.9067385 C27.0435409,15.9067385 27.233202,16.0964001 27.233202,16.3304675 C27.233202,16.5645348 27.0435432,16.7541964 26.8094733,16.7541964 L26.8094733,16.7541964 Z M26.8094733,14.0931854 L19.4082868,14.0931854 C19.1742196,14.0931854 18.984558,13.9035238 18.984558,13.6694564 C18.984558,13.4353891 19.1742196,13.2457275 19.4082868,13.2457275 L26.8094733,13.2457275 C27.0435409,13.2457275 27.233202,13.4353891 27.233202,13.6694564 C27.233202,13.9035238 27.0435432,14.0931854 26.8094733,14.0931854 L26.8094733,14.0931854 Z M26.8094733,11.4321747 L19.4082868,11.4321747 C19.1742196,11.4321747 18.984558,11.2425131 18.984558,11.0084457 C18.984558,10.7743784 19.1742196,10.5847168 19.4082868,10.5847168 L26.8094733,10.5847168 C27.0435409,10.5847168 27.233202,10.7743778 27.233202,11.0084457 C27.233202,11.2425131 27.0435432,11.4321747 26.8094733,11.4321747 L26.8094733,11.4321747 Z M26.8094733,8.77116375 L19.4082868,8.77116375 C19.1742196,8.77116375 18.984558,8.58150281 18.984558,8.34743492 C18.984558,8.11336704 19.1742196,7.9237061 19.4082868,7.9237061 L26.8094733,7.9237061 C27.0435409,7.9237061 27.233202,8.11336704 27.233202,8.34743492 C27.233202,8.58150281 27.0435432,8.77116375 26.8094733,8.77116375 L26.8094733,8.77116375 Z" id="Shape" fill="#FFFFFF" mask="url(#mask-2)"></path>
        </g>
    </g>
</svg>