<?xml version="1.0" encoding="UTF-8"?>
<svg width="30px" height="30px" viewBox="0 0 30 30" version="1.1" xmlns="http://www.w3.org/2000/svg" xmlns:xlink="http://www.w3.org/1999/xlink">
    <!-- Generator: Sketch 63.1 (92452) - https://sketch.com -->
    <title>Cameras</title>
    <desc>Created with Sketch.</desc>
    <defs>
        <rect id="path-1" x="0" y="0" width="30" height="30"></rect>
    </defs>
    <g id="Cameras" stroke="none" stroke-width="1" fill="none" fill-rule="evenodd">
        <g>
            <mask id="mask-2" fill="white">
                <use xlink:href="#path-1"></use>
            </mask>
            <use id="Background" fill="#D8D8D8" opacity="0" xlink:href="#path-1"></use>
            <g id="Group-4" mask="url(#mask-2)" fill="#FFFFFF">
                <g transform="translate(2.000000, 4.000000)">
                    <path d="M23.7058848,21 L2.2941179,21 C0.994117878,21 0,20.0215071 0,18.7419364 L0,5.19354843 C0,3.91397832 0.994117878,2.93548395 2.2941179,2.93548395 L6.88235418,2.93548395 C7.03529528,2.93548395 7.2647068,2.78494629 7.34117748,2.70967704 L8.18235444,1.05376324 C8.48823664,0.451612518 9.2529424,0 9.94117748,0 L16.0588246,0 C16.7470602,0 17.511767,0.451613211 17.8176492,1.05376324 L18.6588246,2.70967704 C18.7352932,2.8602147 18.9647078,2.93548395 19.1176466,2.93548395 L23.7058832,2.93548395 C25.0058835,2.93548395 26,3.91397832 26,5.19354843 L26,18.7419364 C26,20.0215071 25.0058835,21 23.7058832,21 L23.7058848,21 Z M1.80000004,4.1724131 C1.31999973,4.1724131 1,4.48965416 1,4.96551661 L1,19.2413806 C1,19.7172407 1.31999973,20.0344828 1.80000004,20.0344828 L24.2000008,20.0344828 C24.6800008,20.0344828 25,19.7172407 25,19.2413806 L25,4.96551661 C25,4.48965416 24.6800008,4.1724131 24.2000008,4.1724131 L19.4000008,4.1724131 C18.6800008,4.1724131 17.8800016,3.69655084 17.5600014,3.06206852 L16.6800009,1.31724106 C16.600001,1.15862053 16.3600012,1 16.2000016,1 L9.80000008,1 C9.63999952,1 9.40000048,1.15862053 9.31999984,1.23793121 L8.44,2.98275868 C8.12000032,3.69655141 7.31999968,4.1724131 6.6000004,4.1724131 L1.80000004,4.1724131 L1.80000004,4.1724131 Z" id="Shape"></path>
                    <path d="M12.9230474,17.0422781 C9.28843195,17.0422781 6.38073967,14.1345861 6.38073967,10.4999704 C6.38073967,6.86535502 9.28843195,3.95766275 12.9230474,3.95766275 C16.557663,3.95766275 19.4653551,6.86535502 19.4653551,10.4999704 C19.4653551,14.1345861 16.557663,17.0422781 12.9230474,17.0422781 L12.9230474,17.0422781 Z M12.9230375,5.41149905 C10.0880378,5.41149905 7.83457597,7.66496088 7.83457597,10.4999606 C7.83457597,13.3349603 10.0880378,15.5884221 12.9230375,15.5884221 C15.7580372,15.5884221 18.011499,13.3349603 18.011499,10.4999606 C18.011499,7.66496088 15.7580372,5.41149905 12.9230375,5.41149905 L12.9230375,5.41149905 Z" id="Shape"></path>
                    <ellipse id="Circle" cx="20.192338" cy="5.41157772" rx="1" ry="1"></ellipse>
                    <polygon id="Shape" points="3.47311634 1.05003942 6.38080897 1.05003942 6.38080897 1.77696217 3.47311634 1.77696217"></polygon>
                    <path d="M12.9230769,7.59230769 L12.9230769,6.86538462 C10.8876929,6.86538462 9.28846154,8.46461593 9.28846154,10.5 L10.0153846,10.5 C10.0153846,8.90076887 11.3238458,7.59230769 12.9230769,7.59230769 L12.9230769,7.59230769 Z" id="Shape"></path>
                </g>
            </g>
        </g>
    </g>
</svg>