<?xml version="1.0" encoding="UTF-8"?>
<svg width="30px" height="30px" viewBox="0 0 30 30" version="1.1" xmlns="http://www.w3.org/2000/svg" xmlns:xlink="http://www.w3.org/1999/xlink">
    <!-- Generator: Sketch 63.1 (92452) - https://sketch.com -->
    <title>Gaming Console</title>
    <desc>Created with Sketch.</desc>
    <defs>
        <rect id="path-1" x="0" y="0" width="30" height="30"></rect>
    </defs>
    <g id="Gaming-Console" stroke="none" stroke-width="1" fill="none" fill-rule="evenodd">
        <g>
            <mask id="mask-2" fill="white">
                <use xlink:href="#path-1"></use>
            </mask>
            <use id="Background" fill="#D8D8D8" opacity="0" xlink:href="#path-1"></use>
            <g id="Group" mask="url(#mask-2)">
                <g transform="translate(0.000000, 3.259705)">
                    <g>
                        <g fill="#FFFFFF" id="Shape">
                            <path d="M28.915194,12.8449182 C28.7742771,12.6244293 28.48125,12.5600349 28.260996,12.7008939 C28.040565,12.8418117 27.976113,13.1347207 28.116972,13.3550934 C28.7290425,14.312749 29.0525955,15.4226348 29.0525955,16.5649763 C29.0525955,16.8220844 29.0362482,17.0754464 29.004549,17.324059 C28.991832,17.4235522 28.976775,17.5221628 28.959198,17.6200744 C28.950408,17.6689987 28.941093,17.7176893 28.9310718,17.766266 C28.37367,20.4833156 25.963884,22.5331018 23.084472,22.5331018 C23.0842959,22.5331018 23.0841189,22.5331018 23.083884,22.5331018 C23.0130441,22.5331018 22.9424982,22.531578 22.872186,22.5291172 C22.838259,22.5278875 22.804392,22.5258346 22.770525,22.5240172 C22.735896,22.5222632 22.701327,22.5205632 22.666872,22.5182175 C22.6200558,22.5149372 22.573356,22.5108927 22.526658,22.5064408 C22.5077319,22.5046844 22.488807,22.5030443 22.46994,22.5011086 C22.412049,22.4951325 22.354158,22.4883947 22.2965025,22.4807776 C22.2925185,22.4802524 22.288476,22.4797219 22.284492,22.4791974 C21.4985151,22.3730241 20.7391995,22.1111692 20.054061,21.7064629 C20.035839,21.6956806 20.0167965,21.6864212 19.99746,21.6782218 C18.915117,21.0257799 18.045702,20.0307402 17.547948,18.7978689 C17.44998,18.55535 17.174004,18.4381028 16.9313658,18.535956 C16.688787,18.6339254 16.5715419,18.90996 16.669392,19.1525383 C16.960719,19.8741776 17.36244,20.5252153 17.849763,21.0907601 C15.580311,20.6525986 13.5713061,20.8198257 12.153981,21.0861328 C12.639489,20.5216381 13.03986,19.8721864 13.3304268,19.1524782 C13.4283954,18.9098989 13.3110909,18.6338068 13.068513,18.5358949 C12.8260518,18.4380451 12.5498994,18.5552899 12.451989,18.7978119 C11.9540592,20.0310915 11.0842941,21.0264232 10.0014819,21.6787477 C9.982497,21.6868321 9.9638058,21.6957421 9.945759,21.7063445 C9.2607396,22.1110541 8.5015404,22.372849 7.7155638,22.4790222 C7.7114619,22.4796083 7.7073606,22.4800756 7.703259,22.4806626 C7.6457199,22.4882797 7.588005,22.4950177 7.5301731,22.5009944 C7.5111885,22.5029292 7.4920284,22.5045705 7.4729271,22.5063879 C7.4264037,22.5107225 7.3798218,22.5147668 7.3331808,22.5180461 C7.2985518,22.5204491 7.2637476,22.5220906 7.2290598,22.5239068 C7.1953101,22.5256632 7.1616768,22.5277729 7.1278686,22.5289469 C7.0573215,22.5314075 6.9865404,22.5329304 6.9155247,22.5329304 C3.62460672,22.5329304 0.94734102,19.8556067 0.94734102,16.5648049 C0.94734102,13.2740042 3.62460672,10.5966798 6.9154662,10.5966798 L12.1263261,10.5966798 L12.1263261,11.7592377 C12.1263261,12.0209175 12.3384351,12.2329099 12.5999979,12.2329099 L14.87367,12.2329099 C15.1353495,12.2329099 15.347343,12.0208588 15.347343,11.7592377 C15.347343,11.4976167 15.1353495,11.2855662 14.8736706,11.2855662 L13.0736706,11.2855662 L13.0736706,10.5966794 L16.67367,10.5966794 L16.67367,11.2855662 L16.305291,11.2855662 C16.0436118,11.2855662 15.831621,11.4976749 15.831621,11.7592377 C15.831621,12.0209175 16.043613,12.2329099 16.305291,12.2329099 L17.1474015,12.2329099 C17.409081,12.2329099 17.621073,12.0208588 17.621073,11.7592377 L17.621073,10.5966794 L23.084589,10.5966794 C24.67869,10.5966794 26.1774015,11.2174799 27.304629,12.3447075 C27.4896669,12.5296291 27.7895505,12.5296291 27.974532,12.3447075 C28.159512,12.1596682 28.159512,11.8597857 27.974532,11.6748045 C26.668302,10.3686323 24.9316995,9.64933566 23.084532,9.64933566 L17.1473445,9.64933566 L15.3473442,9.64933566 L15.3473442,7.91958977 C15.3473442,6.81222636 16.2482232,5.91128929 17.355585,5.91128929 L18.757911,5.91128929 L19.8009378,5.91128929 L20.7295902,5.91128929 C22.3593162,5.91128929 23.6851752,4.58537132 23.6851752,2.95564464 C23.6851752,1.32591788 22.3593162,0 20.729589,0 L19.800936,0 L18.7579089,0 L14.7474012,0 C14.4857802,0 14.2737294,0.212109316 14.2737294,0.473671847 C14.2737294,0.735292704 14.4858384,0.947343694 14.7474012,0.947343694 L18.7579089,0.947343694 L19.800936,0.947343694 L20.729589,0.947343694 C21.8369508,0.947343694 22.7378298,1.84828111 22.7378298,2.95564464 C22.7378298,4.06300806 21.8369508,4.9639456 20.729589,4.9639456 L19.800936,4.9639456 L18.7579089,4.9639456 L17.3555838,4.9639456 C15.7258575,4.9639456 14.3999979,6.2898631 14.3999979,7.91958977 L14.3999979,9.64933566 L12.5999979,9.64933566 L6.9154665,9.64933566 C3.102246,9.64950778 0,12.7517541 0,16.5649763 C0,20.3782008 3.102246,23.48062 6.9154689,23.48062 C6.9972069,23.48062 7.07877,23.4787462 7.1603322,23.4758168 C7.1983596,23.4744681 7.2362109,23.4720646 7.2741213,23.4701899 C7.3150197,23.4680241 7.3560357,23.4661458 7.3968753,23.4633359 C7.4494926,23.4597582 7.5018168,23.455074 7.554141,23.4503277 C7.5768756,23.4482174 7.5996681,23.4462834 7.622403,23.4439409 C7.6880274,23.4373177 7.7533008,23.4296426 7.818516,23.421206 C7.8232035,23.4205624 7.827891,23.4199766 7.83252,23.4193896 C8.7604101,23.2972211 9.6379101,22.991946 10.4216604,22.5322213 C10.9352346,22.3400324 14.9924415,20.933958 19.589004,22.5387243 C20.370585,22.9952296 21.24498,23.2983329 22.1692962,23.4197409 C22.173867,23.4203852 22.178319,23.420971 22.1828895,23.4215005 C22.247811,23.4298791 22.312968,23.4375542 22.378359,23.444117 C22.4011518,23.446458 22.4239452,23.4483938 22.4467368,23.4505601 C22.4988861,23.4553062 22.551093,23.4599345 22.6034742,23.4635104 C22.6442565,23.4663823 22.685154,23.4682563 22.7259351,23.4704224 C22.7638452,23.4723583 22.801638,23.4747005 22.839666,23.476049 C22.920876,23.4789209 23.0022042,23.48062 23.08371,23.48062 C23.083884,23.48062 23.0840028,23.48062 23.0842371,23.48062 C23.0842371,23.48062 23.0842371,23.48062 23.0842959,23.48062 C25.46748,23.48062 27.5730462,22.2687829 28.817049,20.4289415 C28.8481038,20.3829439 28.87869,20.3365368 28.9087485,20.289781 C29.028807,20.102691 29.140077,19.9094478 29.242029,19.7106984 C29.7266025,18.7664018 30,17.6970075 30,16.5649763 C30,15.2414595 29.624823,13.9550944 28.915194,12.8449182 L28.915194,12.8449182 Z"></path>
                            <path d="M6.41053697,19.748913 L6.53686505,19.748913 C7.21590761,19.748913 7.76844687,19.1964338 7.76844687,18.5173309 L7.76844687,17.8225848 L8.46319287,17.8225848 C9.14223588,17.8225848 9.6947745,17.2701051 9.6947745,16.5910023 L9.6947745,16.4646739 C9.6947745,15.7855726 9.14229386,15.2330915 8.46319287,15.2330915 L7.76844687,15.2330915 L7.76844687,14.5383456 C7.76844687,13.8592444 7.21596643,13.306763 6.53686505,13.306763 L6.41053697,13.306763 C5.73149415,13.306763 5.17895515,13.8592426 5.17895515,14.5383456 L5.17895515,15.2330915 L4.48426739,15.2330915 C3.8052246,15.2330915 3.2526855,15.7855709 3.2526855,16.4646739 L3.2526855,16.5910023 C3.2526855,17.2701038 3.80516604,17.8225848 4.48426739,17.8225848 L5.17901377,17.8225848 L5.17901377,18.5173309 C5.17895515,19.1963747 5.73149415,19.748913 6.41053697,19.748913 L6.41053697,19.748913 Z M4.48418926,16.8752853 C4.32750937,16.8752853 4.1999511,16.7477854 4.1999511,16.5910461 L4.1999511,16.4647177 C4.1999511,16.3080375 4.32745125,16.1804788 4.48418926,16.1804788 L5.65260738,16.1804788 C5.91422824,16.1804788 6.12627933,15.9684859 6.12627933,15.7068079 L6.12627933,14.5383897 C6.12627933,14.3817094 6.25377939,14.2541507 6.41051745,14.2541507 L6.53684549,14.2541507 C6.6935252,14.2541507 6.82108374,14.3816504 6.82108374,14.5383897 L6.82108374,15.7068079 C6.82108374,15.9684877 7.03319322,16.1804788 7.29475542,16.1804788 L8.46317372,16.1804788 C8.61985316,16.1804788 8.7474117,16.3079784 8.7474117,16.4647177 L8.7474117,16.5910461 C8.7474117,16.7477264 8.61991205,16.8752853 8.46317372,16.8752853 L7.29475542,16.8752853 C7.0331341,16.8752853 6.82108374,17.087278 6.82108374,17.348956 L6.82108374,18.5173743 C6.82108374,18.6741116 6.69358341,18.8016132 6.53684549,18.8016132 L6.41051745,18.8016132 C6.2538376,18.8016132 6.12627933,18.6741726 6.12627933,18.5173743 L6.12627933,17.3489577 C6.12627933,17.087278 5.91416976,16.8752853 5.65260738,16.8752853 L4.48418926,16.8752853 L4.48418926,16.8752853 Z"></path>
                            <path d="M22.8606632,15.5453013 C23.7313082,15.5453013 24.4395883,14.8369623 24.4395883,13.9663762 C24.4395883,13.0957312 23.7312493,12.387451 22.8606632,12.387451 C21.9900182,12.387451 21.281738,13.0957902 21.281738,13.9663762 C21.281679,14.8370212 21.99002,15.5453013 22.8606632,15.5453013 L22.8606632,15.5453013 Z M22.8605852,13.3348387 C23.2088664,13.3348387 23.4921667,13.618139 23.4921667,13.9664203 C23.4921667,14.3147015 23.2088664,14.5980018 22.8605852,14.5980018 C22.5123629,14.5980018 22.2290036,14.3147015 22.2290036,13.9664203 C22.2290036,13.618198 22.5123039,13.3348387 22.8605852,13.3348387 L22.8605852,13.3348387 Z"></path>
                            <path d="M22.8606632,20.6681043 C23.7313082,20.6681043 24.4395883,19.9597653 24.4395883,19.0891791 C24.4395883,18.2185342 23.7312493,17.510254 22.8606632,17.510254 C21.9900182,17.510254 21.281738,18.2185932 21.281738,19.0891791 C21.281679,19.9598225 21.99002,20.6681043 22.8606632,20.6681043 L22.8606632,20.6681043 Z M22.8605852,18.4575807 C23.2088664,18.4575807 23.4921667,18.7408809 23.4921667,19.0891621 C23.4921667,19.4373843 23.2088664,19.7207436 22.8605852,19.7207436 C22.5123629,19.7207436 22.2290036,19.4374433 22.2290036,19.0891621 C22.2290036,18.7409989 22.5123039,18.4575807 22.8605852,18.4575807 L22.8605852,18.4575807 Z"></path>
                            <path d="M18.720215,16.5277786 C18.720215,17.3984239 19.4285542,18.1067042 20.2991401,18.1067042 C21.1697852,18.1067042 21.8780653,17.398365 21.8780653,16.5277786 C21.8780653,15.6571334 21.1697263,14.948853 20.2991401,14.948853 C19.4285542,14.948853 18.720215,15.6571334 18.720215,16.5277786 L18.720215,16.5277786 Z M20.9307656,16.5278224 C20.9307656,16.8760447 20.6474654,17.1594041 20.2991841,17.1594041 C19.9509619,17.1594041 19.6676027,16.8761038 19.6676027,16.5278224 C19.6676027,16.179541 19.9509029,15.8962407 20.2991841,15.8962407 C20.6474654,15.8962407 20.9307656,16.1796001 20.9307656,16.5278224 L20.9307656,16.5278224 Z"></path>
                            <path d="M27.0008683,16.5277786 C27.0008683,15.6571334 26.2925293,14.948853 25.4219432,14.948853 C24.5512982,14.948853 23.843018,15.6571924 23.843018,16.5277786 C23.843018,17.3984239 24.5513572,18.1067042 25.4219432,18.1067042 C26.2925865,18.1067042 27.0008683,17.3984239 27.0008683,16.5277786 L27.0008683,16.5277786 Z M24.7902836,16.5278224 C24.7902836,16.179541 25.0735838,15.8962407 25.4218651,15.8962407 C25.7700872,15.8962407 26.0534465,16.179541 26.0534465,16.5278224 C26.0534465,16.8760447 25.7701463,17.1594041 25.4218651,17.1594041 C25.0735838,17.1594041 24.7902836,16.8759875 24.7902836,16.5278224 L24.7902836,16.5278224 Z"></path>
                        </g>
                    </g>
                </g>
            </g>
        </g>
    </g>
</svg>