<?xml version="1.0" encoding="UTF-8"?>
<svg width="30px" height="30px" viewBox="0 0 30 30" version="1.1" xmlns="http://www.w3.org/2000/svg" xmlns:xlink="http://www.w3.org/1999/xlink">
    <!-- Generator: Sketch 63.1 (92452) - https://sketch.com -->
    <title>Grooming</title>
    <desc>Created with Sketch.</desc>
    <g id="Grooming" stroke="none" stroke-width="1" fill="none" fill-rule="evenodd">
        <g id="hairdryer-svgrepo-com">
            <rect id="Background" fill="#D8D8D8" opacity="0" x="0" y="0" width="30" height="30"></rect>
            <g id="Group-3" transform="translate(1.000000, 3.000000)">
                <g id="Group-2" transform="translate(4.213741, 0.000000)" fill="#FFFFFF" fill-rule="nonzero">
                    <path d="M23.738657,6.20962443 C23.7293914,6.12370231 23.7182816,6.03829554 23.7059574,5.95321672 C23.6931385,5.86499898 23.6798248,5.78418346 23.6652966,5.7037896 C23.6636324,5.69465393 23.6619682,5.68551826 23.660304,5.6763826 C23.6465405,5.60189178 23.6317875,5.5277289 23.61573,5.45403453 C23.611547,5.4346388 23.6069592,5.41533678 23.6025962,5.3959879 C23.5912166,5.34576516 23.5792972,5.29577667 23.5668831,5.24597557 C23.5536593,5.19266076 23.5396709,5.13967389 23.5252777,5.08678073 C23.5194755,5.06560472 23.5137182,5.04442871 23.507736,5.02334641 C23.3263366,4.38042972 23.0569587,3.77147898 22.7039203,3.20534874 C22.6964089,3.19326155 22.6888075,3.18122121 22.6812061,3.16918087 C22.6478318,3.11633456 22.6137829,3.06381619 22.5789243,3.01176631 C22.5570197,2.97892476 22.5348901,2.94631746 22.5124907,2.91389755 C22.4955337,2.88944208 22.4787116,2.86493975 22.4614398,2.84067167 C22.4247821,2.78904344 22.3872698,2.73811796 22.3493077,2.68756727 C22.3345547,2.6679373 22.3197566,2.64835418 22.3047787,2.62886475 C22.2665468,2.57911051 22.2277751,2.52982476 22.1883287,2.4811949 C22.1804124,2.47145019 22.1729909,2.46137753 22.1650297,2.45163282 C22.1635454,2.45008679 22.1619261,2.44882185 22.1604418,2.44732266 C21.0902169,1.14513879 19.5732628,0.252935533 17.8662734,0.0529347084 C16.9067412,-0.0670001972 15.9471641,0.0129720231 15.0259988,0.332767205 C10.8423432,1.73207024 7.11927027,2.41171699 3.54975484,2.41171699 L3.08917221,2.41171699 C1.82256996,2.41171699 0.786259029,3.49113114 0.786259029,4.8104151 L0.786259029,9.60781132 C0.786259029,10.9270953 1.82256996,12.0065094 3.08917221,12.0065094 L4.24062879,12.0065094 L5.12342717,12.0065094 C7.53559379,12.0065094 10.0634008,12.3436858 12.760418,13.0362162 L10.573685,19.1226316 C9.92117795,20.9616178 10.8423432,23.0804834 12.60794,23.7601302 C13.0301557,23.9200278 13.4139596,24 13.8361753,24 C15.2179232,24 16.5613043,23.120493 17.0218869,21.6812741 L20.072932,13.2851748 C20.8288902,12.896136 21.5139619,12.3574596 22.0882959,11.6867143 C23.3548082,10.1674763 23.9689483,8.24851783 23.738657,6.20962443 Z M23.0093712,6.32955934 C23.1628837,7.88871311 22.7790799,9.44786688 21.8962815,10.6871786 C21.0134831,9.44786688 20.6296792,7.88871311 20.7831918,6.32955934 C20.8983375,5.25014519 21.2821413,4.25070326 21.8962815,3.37114938 C22.5104217,4.21074057 22.8942255,5.25014519 23.0093712,6.32955934 Z M3.08917221,11.2069278 C2.2447857,11.2069278 1.55391175,10.4873183 1.55391175,9.60781132 L1.55391175,4.8104151 C1.55391175,3.93090807 2.2447857,3.21129864 3.08917221,3.21129864 L3.54975484,3.21129864 C3.6649005,3.21129864 3.78004616,3.21129864 3.85682492,3.21129864 L3.85682492,11.2069278 L3.08917221,11.2069278 Z M14.9772868,13.6736046 C15.031891,13.690939 15.0863603,13.7079454 15.1410995,13.7255608 C15.7936066,13.9254679 16.4460686,14.0053933 17.0985757,14.0053933 C17.1712164,14.0053933 17.2435873,14.0038004 17.3158232,14.0014111 L16.4460686,16.4040914 C16.2157773,17.0037659 15.5249034,17.3635707 14.9491751,17.1237008 C14.6037381,17.0037659 14.3734468,16.7239334 14.2583011,16.3641287 C14.1815224,16.1242589 14.1815224,15.8044169 14.296668,15.5245844 L14.9772868,13.6736046 Z M16.3693348,21.3614321 C15.8703853,22.8006509 14.296713,23.5602231 12.9149651,23.0005581 C11.5332172,22.4808558 10.8039763,20.8417298 11.3412928,19.4025109 L13.5651782,13.2521459 C13.7928158,13.3157676 14.0217128,13.3818723 14.2518242,13.4504601 L13.605839,15.2447519 C13.4139146,15.7244915 13.4139146,16.2042311 13.5290603,16.6039985 C13.6825728,17.2036731 14.1047886,17.6834127 14.6805169,17.8833198 C14.9108082,17.963292 15.1410995,18.0032547 15.3713908,18.0032547 C16.1774104,18.0032547 16.9066513,17.4835524 17.1753545,16.7239334 L18.206043,13.9104761 C18.5316894,13.8543503 18.8512635,13.7738159 19.1624717,13.6696224 L16.3693348,21.3614321 Z M19.7598797,12.5647689 C19.7056353,12.5638788 19.6495018,12.5769498 19.5933683,12.606184 C19.0671617,12.8671829 18.5244928,13.0424003 17.9655415,13.1330074 C17.9343713,13.1283225 17.9014018,13.1258863 17.8661834,13.1258863 C17.5591134,13.165849 17.328822,13.165849 17.0985307,13.165849 C16.4844355,13.165849 15.9087072,13.0459141 15.3713458,12.8860165 C15.2945671,12.8860165 15.1794214,12.8460538 15.0642758,12.8060442 L14.9122025,12.7743739 C11.3850571,11.7180566 8.16655602,11.2069278 5.12342717,11.2069278 L4.62447764,11.2069278 L4.62447764,3.19148127 C7.95029808,3.07093732 11.4505462,2.39096262 15.294657,1.09238617 C16.1006766,0.812553677 16.9450631,0.732581457 17.8278615,0.852516363 C19.2048867,1.01644302 20.4507087,1.70560023 21.3847379,2.71516167 C20.6237421,3.73713824 20.1568624,4.92238558 20.015629,6.20962443 C19.7973471,8.06622614 20.3035382,9.88665998 21.4025945,11.3310791 C20.918353,11.839725 20.3624154,12.2552807 19.7598797,12.5647689 Z" id="Shape"></path>
                    <path d="M19.4291281,6 L15.1433899,6 C14.929103,6 14.786259,6.19998828 14.786259,6.5 C14.786259,6.80001172 14.929103,7 15.1433899,7 L19.4291281,7 C19.643415,7 19.786259,6.80001172 19.786259,6.5 C19.786259,6.19998828 19.643415,6 19.4291281,6 Z" id="Path"></path>
                    <path d="M18.3862731,8 L15.186245,8 C14.946244,8 14.786259,8.19998828 14.786259,8.5 C14.786259,8.80001172 14.946244,9 15.186245,9 L18.3862731,9 C18.626274,9 18.786259,8.80001172 18.786259,8.5 C18.786259,8.19998828 18.626274,8 18.3862731,8 Z" id="Path"></path>
                    <path d="M15.186245,5 L18.3862731,5 C18.626274,5 18.786259,4.80001172 18.786259,4.5 C18.786259,4.19998828 18.626274,4 18.3862731,4 L15.186245,4 C14.946244,4 14.786259,4.19998828 14.786259,4.5 C14.786259,4.80001172 14.946244,5 15.186245,5 Z" id="Path"></path>
                </g>
                <path d="M4.07958378,5.50769506 C3.64859398,5.23868119 3.23327572,5.15105182 2.83362899,5.24480696 C2.2341589,5.38543966 1.98537205,5.53650495 1.4971191,5.7928358 C0.970872066,6.06911339 2.27373675e-13,5.50769506 2.27373675e-13,5.50769506" id="Line" stroke="#FFFFFF" stroke-width="0.8" stroke-linecap="square"></path>
                <path d="M4.07958378,7.2268876 C3.77287095,6.95787372 3.47731072,6.87024435 3.19290311,6.96399949 C2.76629168,7.1046322 2.58924313,7.25569749 2.24177912,7.51202834 C1.8672767,7.78830593 1.17635797,7.2268876 1.17635797,7.2268876" id="Line-Copy" stroke="#FFFFFF" stroke-width="0.8" stroke-linecap="square"></path>
                <path d="M4.24599904,9.16237147 C3.83704859,8.89335759 3.44296829,8.80572823 3.06375814,8.89948336 C2.4949429,9.04011607 2.25887817,9.19118136 1.79559282,9.44751221 C1.29625626,9.7237898 0.375031294,9.16237147 0.375031294,9.16237147" id="Line-Copy-2" stroke="#FFFFFF" stroke-width="0.8" stroke-linecap="square"></path>
            </g>
        </g>
    </g>
</svg>