<?xml version="1.0" encoding="UTF-8"?>
<svg width="30px" height="30px" viewBox="0 0 30 30" version="1.1" xmlns="http://www.w3.org/2000/svg" xmlns:xlink="http://www.w3.org/1999/xlink">
    <!-- Generator: Sketch 63.1 (92452) - https://sketch.com -->
    <title>Audio</title>
    <desc>Created with Sketch.</desc>
    <defs>
        <rect id="path-1" x="0" y="0" width="30" height="30"></rect>
    </defs>
    <g id="Audio" stroke="none" stroke-width="1" fill="none" fill-rule="evenodd">
        <g>
            <mask id="mask-2" fill="white">
                <use xlink:href="#path-1"></use>
            </mask>
            <use id="Background" fill="#FFFFFF" opacity="0" xlink:href="#path-1"></use>
            <g id="Group" mask="url(#mask-2)">
                <g transform="translate(0.000000, 0.079773)">
                    <g>
                        <g fill="#FFFFFF" id="Shape">
                            <path d="M25.606596,4.39340445 C22.77351,1.5602553 19.006659,0 15,0 C10.9933404,0 7.2264888,1.5602553 4.3934043,4.39340445 C1.5602553,7.22648858 0,10.9933402 0,15 L0,16.2765945 C0,17.5964692 1.0737447,18.670212 2.3936169,18.670212 L2.4374679,18.670212 C2.56091505,19.09251 2.70555318,19.5094462 2.8723404,19.9200623 L2.8723404,22.0212754 C2.8723404,22.2856594 3.0866808,22.5 3.3510636,22.5 C3.61544655,22.5 3.8297871,22.2856594 3.8297871,22.0212754 L3.8297871,19.8256579 C3.8297871,19.762722 3.817404,19.700424 3.7932765,19.6422772 C3.1821702,18.1687657 2.8723404,16.6068518 2.8723404,15 C2.8723404,8.31280882 8.3128086,2.87234033 15,2.87234033 C21.6871905,2.87234033 27.127659,8.31280882 27.127659,15 C27.127659,16.6069132 26.8178289,18.1688278 26.206722,19.6422772 C26.1825942,19.7004256 26.170212,19.762722 26.170212,19.8256579 L26.170212,22.0212754 C26.170212,22.2856594 26.384553,22.5 26.6489358,22.5 C26.913318,22.5 27.127659,22.2856594 27.127659,22.0212754 L27.127659,19.9200623 C27.294447,19.509444 27.4390842,19.09251 27.56253,18.670212 L27.6063825,18.670212 C28.926255,18.670212 30,17.5964692 30,16.2765945 L30,15 C30,10.9933402 28.4397429,7.22648858 25.606596,4.39340445 L25.606596,4.39340445 Z M0.9574585,16.2765713 L0.9574585,15.478699 L1.92441604,15.478699 C1.95128834,16.2299116 2.04141604,16.9711664 2.1941607,17.6985724 C1.49637346,17.6011679 0.9574585,17.0007847 0.9574585,16.2765713 L0.9574585,16.2765713 Z M14.9999807,1.91490518 C7.94513051,1.91490518 2.17747077,7.52713909 1.9245768,14.5212875 L0.9664917,14.5212875 C1.21983258,6.99907495 7.41719458,0.9574585 14.9999807,0.9574585 C22.5827688,0.9574585 28.7801315,6.99907495 29.0334697,14.5212875 L28.0753854,14.5212875 C27.8224919,7.52713909 22.0548326,1.91490518 14.9999807,1.91490518 L14.9999807,1.91490518 Z M29.042549,16.2765704 C29.042549,17.0007838 28.5036346,17.601167 27.805847,17.6985715 C27.958592,16.9711675 28.0487188,16.2299116 28.0755925,15.478699 L29.042549,15.478699 L29.042549,16.2765704 L29.042549,16.2765704 Z"></path>
                            <path d="M10.0531892,14.202087 C8.3531464,14.202087 6.94576353,15.474853 6.73142303,17.1173208 C5.62576346,17.328342 4.7872314,18.3018107 4.7872314,19.4680443 L4.7872314,24.5744274 C4.7872314,25.7406613 5.62576346,26.7141297 6.73142303,26.9251513 C6.94582747,28.5676183 8.3532106,29.840385 10.0531892,29.840385 C11.9009984,29.840385 13.4042534,28.3371292 13.4042534,26.4893209 L13.4042534,17.5531506 C13.4042534,15.7053419 11.9009984,14.202087 10.0531892,14.202087 L10.0531892,14.202087 Z M12.4468174,26.4893326 C12.4468174,27.8092057 11.3730726,28.8829495 10.0532008,28.8829495 C8.73332873,28.8829495 7.65958357,27.8092057 7.65958357,26.4893326 L7.65958357,22.9786937 C7.65958357,22.7143118 7.4452431,22.4999712 7.18086012,22.4999712 C6.91647721,22.4999712 6.70213673,22.7143118 6.70213673,22.9786937 L6.70213673,25.9282684 C6.14496626,25.7306507 5.7446899,25.1985655 5.7446899,24.5744388 L5.7446899,19.4680562 C5.7446899,18.8439273 6.14496626,18.3118424 6.70213673,18.1142268 L6.70213673,21.0638006 C6.70213673,21.3281836 6.91647721,21.5425238 7.18086012,21.5425238 C7.4452431,21.5425238 7.65958357,21.3281836 7.65958357,21.0638006 L7.65958357,17.5531624 C7.65958357,16.2332906 8.73332873,15.1595455 10.0532008,15.1595455 C11.3730726,15.1595455 12.4468174,16.2332906 12.4468174,17.5531624 L12.4468174,26.4893326 L12.4468174,26.4893326 Z"></path>
                            <path d="M23.2685932,17.1173208 C23.0541884,15.474853 21.6468064,14.202087 19.9468282,14.202087 C18.0990191,14.202087 16.595764,15.7053419 16.595764,17.5531506 L16.595764,26.4893209 C16.595764,28.3371292 18.0990191,29.840385 19.9468282,29.840385 C21.6468707,29.840385 23.0542526,28.5676183 23.2685954,26.9251513 C24.3742541,26.7141297 25.212786,25.7406613 25.212786,24.5744274 L25.212786,19.4680443 C25.212786,18.3018107 24.3742541,17.328342 23.2685932,17.1173208 L23.2685932,17.1173208 Z M24.25535,24.5744388 C24.25535,25.1985677 23.8550739,25.730652 23.2979033,25.9282684 L23.2979033,22.9786937 C23.2979033,22.7143118 23.083563,22.4999712 22.8191799,22.4999712 C22.5547971,22.4999712 22.3404565,22.7143118 22.3404565,22.9786937 L22.3404565,26.4893326 C22.3404565,27.8092057 21.2667125,28.8829495 19.9468396,28.8829495 C18.6269667,28.8829495 17.5532225,27.8092057 17.5532225,26.4893326 L17.5532225,17.5531624 C17.5532225,16.2332906 18.6269667,15.1595455 19.9468396,15.1595455 C21.2667125,15.1595455 22.3404565,16.2332906 22.3404565,17.5531624 L22.3404565,21.0638006 C22.3404565,21.3281836 22.5547971,21.5425238 22.8191799,21.5425238 C23.083563,21.5425238 23.2979033,21.3281836 23.2979033,21.0638006 L23.2979033,18.1142268 C23.8550739,18.3118443 24.25535,18.8439295 24.25535,19.4680562 L24.25535,24.5744388 L24.25535,24.5744388 Z"></path>
                        </g>
                    </g>
                </g>
            </g>
        </g>
    </g>
</svg>