<?xml version="1.0" encoding="UTF-8"?>
<svg width="30px" height="30px" viewBox="0 0 30 30" version="1.1" xmlns="http://www.w3.org/2000/svg" xmlns:xlink="http://www.w3.org/1999/xlink">
    <!-- Generator: Sketch 63.1 (92452) - https://sketch.com -->
    <title>Category Icons Black Theme Copy 3</title>
    <desc>Created with Sketch.</desc>
    <defs>
        <rect id="path-1" x="0" y="0" width="30" height="30"></rect>
    </defs>
    <g id="Category-Icons-Black-Theme-Copy-3" stroke="none" stroke-width="1" fill="none" fill-rule="evenodd">
        <g id="Kitchen-Appliances">
            <mask id="mask-2" fill="white">
                <use xlink:href="#path-1"></use>
            </mask>
            <use id="Background" fill="#D8D8D8" opacity="0" xlink:href="#path-1"></use>
            <g id="Microwave" mask="url(#mask-2)" fill="#FFFFFF">
                <g transform="translate(0.000000, 5.156250)" id="Shape">
                    <path d="M26.861577,0 L3.0915468,0 C2.2643436,0 1.48706775,0.3263904 0.90342186,0.919172008 C0.32090619,1.51017182 0,2.29523421 0,3.12928147 L0,19.2187505 C0,19.4778281 0.20990625,19.6875 0.46875,19.6875 L29.53125,19.6875 C29.790141,19.6875 30,19.4778281 30,19.2187505 L30,3.17732782 C30,1.42546891 28.592157,0 26.861577,0 L26.861577,0 Z M29.0625,18.75 L0.9375,18.75 L0.9375,3.12928135 C0.9375,2.55154698 1.16845319,1.98576586 1.57106251,1.5774375 C1.9773285,1.16451547 2.51728162,0.9375 3.09154734,0.9375 L26.8615764,0.9375 C28.0751269,0.9375 29.0625,1.94226575 29.0625,3.17732782 L29.0625,18.75 L29.0625,18.75 Z"></path>
                    <path d="M20.76648,4.21875 L4.36022952,4.21875 C4.1013856,4.21875 3.8914795,4.42837537 3.8914795,4.68750002 L3.8914795,15.0000007 C3.8914795,15.2590781 4.1013856,15.46875 4.36022952,15.46875 L20.76648,15.46875 C21.025324,15.46875 21.2352295,15.2590781 21.2352295,15.0000007 L21.2352295,4.68750002 C21.2352295,4.42837537 21.025324,4.21875 20.76648,4.21875 L20.76648,4.21875 Z M20.2977295,14.53125 L4.8289795,14.53125 L4.8289795,5.15625 L20.2977295,5.15625 L20.2977295,14.53125 L20.2977295,14.53125 Z"></path>
                    <path d="M25.3127343,5.390625 C24.4080055,5.390625 23.671875,6.12623426 23.671875,7.0307816 C23.671875,7.93579744 24.4080055,8.671875 25.3127343,8.671875 C26.2172807,8.671875 26.953125,7.93579744 26.953125,7.0307816 C26.953125,6.12623426 26.2172807,5.390625 25.3127343,5.390625 L25.3127343,5.390625 Z M25.3127343,7.734375 C24.925037,7.734375 24.609375,7.41848414 24.609375,7.03078154 C24.609375,6.64350005 24.925037,6.328125 25.3127343,6.328125 C25.7002491,6.328125 26.015625,6.64350005 26.015625,7.03078154 C26.015625,7.41848414 25.7002491,7.734375 25.3127343,7.734375 L25.3127343,7.734375 Z"></path>
                    <path d="M25.3127343,11.953125 C24.4080055,11.953125 23.671875,12.6892036 23.671875,13.594172 C23.671875,14.4987185 24.4080055,15.234375 25.3127343,15.234375 C26.2172807,15.234375 26.953125,14.4987185 26.953125,13.594172 C26.953125,12.6892036 26.2172807,11.953125 25.3127343,11.953125 L25.3127343,11.953125 Z M25.3127343,14.296875 C24.925037,14.296875 24.609375,13.9814526 24.609375,13.594172 C24.609375,13.2064694 24.925037,12.890625 25.3127343,12.890625 C25.7002491,12.890625 26.015625,13.2064694 26.015625,13.594172 C26.015625,13.9814526 25.7002491,14.296875 25.3127343,14.296875 L25.3127343,14.296875 Z"></path>
                    <path d="M16.875,13.125 L18.7500002,13.125 C19.0088904,13.125 19.21875,12.9153281 19.21875,12.6562502 L19.21875,10.78125 C19.21875,10.5221254 19.0088904,10.3125 18.7500002,10.3125 C18.4911562,10.3125 18.2812501,10.5221254 18.2812501,10.78125 L18.2812501,12.1875001 L16.875,12.1875001 C16.6161561,12.1875001 16.40625,12.3971254 16.40625,12.6562502 C16.40625,12.9153281 16.6161561,13.125 16.875,13.125 L16.875,13.125 Z"></path>
                </g>
            </g>
        </g>
    </g>
</svg>