<?xml version="1.0" encoding="UTF-8"?>
<svg width="30px" height="30px" viewBox="0 0 30 30" version="1.1" xmlns="http://www.w3.org/2000/svg" xmlns:xlink="http://www.w3.org/1999/xlink">
    <!-- Generator: Sketch 63.1 (92452) - https://sketch.com -->
    <title>Laptops</title>
    <desc>Created with Sketch.</desc>
    <defs>
        <rect id="path-1" x="0" y="0" width="30" height="30"></rect>
    </defs>
    <g id="Laptops" stroke="none" stroke-width="1" fill="none" fill-rule="evenodd">
        <g>
            <mask id="mask-2" fill="white">
                <use xlink:href="#path-1"></use>
            </mask>
            <use id="Background" fill="#FFFFFF" opacity="0" xlink:href="#path-1"></use>
            <g id="Group" mask="url(#mask-2)">
                <g transform="translate(0.000000, 4.990356)">
                    <g>
                        <g fill="#FFFFFF" id="Shape">
                            <path d="M29.402391,15.6567728 L27.8884668,15.6567728 L27.8884668,0.597609583 C27.8884668,0.267609381 27.620919,0 27.290856,0 L2.70914352,0 C2.37908385,0 2.11153395,0.267609381 2.11153395,0.597609583 L2.11153395,15.6567728 L0.5976096,15.6567728 C0.26754981,15.6567728 0,15.9243819 0,16.254382 C0,18.3303588 1.68896412,20.019323 3.7649403,20.019323 L26.23506,20.019323 C28.311036,20.019323 30,18.3303588 30,16.254382 C30,15.9243819 29.732451,15.6567728 29.402391,15.6567728 L29.402391,15.6567728 Z M3.3067627,1.1952515 L26.6931977,1.1952515 L26.6931977,16.1952515 L25.497979,16.1952515 L25.497979,3.05421245 C25.497979,2.71192535 25.23043,2.43435215 24.900369,2.43435215 L5.09959136,2.43435215 C4.76953159,2.43435215 4.50198189,2.71192535 4.50198189,3.05421245 L4.50198189,16.1952515 L3.3067627,16.1952515 L3.3067627,1.1952515 L3.3067627,1.1952515 Z M24.3027626,16.085022 L5.6972046,16.085022 L5.6972046,3.585022 L24.3027626,3.585022 L24.3027626,16.085022 L24.3027626,16.085022 Z M26.4521414,19.0102155 L3.54785787,19.0102155 C2.31315884,19.0102155 1.27527786,18.1515484 1,17 L29,17 C28.7247216,18.1515484 27.6868409,19.0102155 26.4521414,19.0102155 L26.4521414,19.0102155 Z"></path>
                            <path d="M7.09162866,5.497404 L12.8884416,5.497404 C13.218501,5.497404 13.4860506,5.22979466 13.4860506,4.8997945 C13.4860506,4.56979434 13.218501,4.302185 12.8884416,4.302185 L7.0916282,4.302185 C6.76156827,4.302185 6.4940186,4.56979434 6.4940186,4.8997945 C6.4940186,5.22979466 6.7615687,5.497404 7.09162866,5.497404 L7.09162866,5.497404 Z"></path>
                            <path d="M14.8008574,5.497404 L15.7570315,5.497404 C16.0870919,5.497404 16.354641,5.22979466 16.354641,4.8997945 C16.354641,4.56979434 16.0870919,4.302185 15.7570315,4.302185 L14.8008565,4.302185 C14.4707971,4.302185 14.203247,4.56979434 14.203247,4.8997945 C14.203247,5.22979466 14.4707971,5.497404 14.8008574,5.497404 L14.8008574,5.497404 Z"></path>
                        </g>
                    </g>
                </g>
            </g>
        </g>
    </g>
</svg>