<?xml version="1.0" encoding="UTF-8"?>
<svg width="30px" height="30px" viewBox="0 0 30 30" version="1.1" xmlns="http://www.w3.org/2000/svg" xmlns:xlink="http://www.w3.org/1999/xlink">
    <!-- Generator: Sketch 63.1 (92452) - https://sketch.com -->
    <title>Mobile Phones</title>
    <desc>Created with Sketch.</desc>
    <defs>
        <rect id="path-1" x="0" y="0" width="30" height="30"></rect>
    </defs>
    <g id="Mobile-Phones" stroke="none" stroke-width="1" fill="none" fill-rule="evenodd">
        <g>
            <mask id="mask-2" fill="white">
                <use xlink:href="#path-1"></use>
            </mask>
            <use id="Background" fill="#D8D8D8" opacity="0" xlink:href="#path-1"></use>
            <g id="Group" mask="url(#mask-2)">
                <g transform="translate(6.100159, 0.000000)">
                    <g>
                        <path d="M14.9098264,0 L2.88984393,0 C1.29638682,0 0,1.2963282 0,2.8897851 L0,27.110214 L0,27.110214 C0,28.703673 1.29632815,30 2.88978502,30 L14.9098255,30 C16.5032831,30 17.79961,28.703673 17.79961,27.110214 L17.79961,2.8897851 C17.79961,1.2963282 16.5032831,0 14.9098264,0 L14.9098264,0 Z M1.1951904,2.88978021 C1.1951904,1.95532722 1.95538614,1.1951904 2.88978016,1.1951904 L14.9098197,1.1951904 C15.8442131,1.1951904 16.6044084,1.95538579 16.6044084,2.88978021 L16.6044084,23.7250724 L1.1951904,23.7250724 L1.1951904,2.88978021 L1.1951904,2.88978021 Z M16.6045295,27.1102325 L16.6045295,27.1102325 C16.6045295,28.0446267 15.844275,28.804822 14.9098803,28.804822 L2.88984131,28.804822 C1.95538826,28.804822 1.1952515,28.0446267 1.1952515,27.1102325 L1.1952515,24.92035 L16.6045295,24.92035 L16.6045295,27.1102325 L16.6045295,27.1102325 Z" id="Shape" fill="#FFFFFF"></path>
                    </g>
                </g>
            </g>
            <g id="Group" mask="url(#mask-2)">
                <g transform="translate(13.535889, 2.031860)">
                    <g>
                        <path d="M2.33068462,0 L0.597598077,0 C0.267597806,0 0,0.267538933 0,0.5975977 C0,0.92765624 0.267597806,1.1951954 0.597598077,1.1951954 L2.33068462,1.1951954 C2.66068393,1.1951954 2.9282827,0.927656455 2.9282827,0.5975977 C2.92834156,0.26753916 2.66068393,0 2.33068462,0 L2.33068462,0 Z" id="Shape" fill="#FFFFFF"></path>
                    </g>
                </g>
            </g>
            <g id="Group" mask="url(#mask-2)">
                <g transform="translate(8.127563, 14.641418)">
                    <g>
                        <path d="M0.5975981,0 C0.267597796,0 0,0.267538715 0,0.597597975 L0,7.58964745 C0,7.91970604 0.267597796,8.187246 0.5975981,8.187246 C0.927598344,8.187246 1.1951962,7.91970604 1.1951962,7.58964745 L1.1951962,0.597655162 C1.1951962,0.267597728 0.927598344,0 0.5975981,0 L0.5975981,0 Z" id="Shape" fill="#FFFFFF"></path>
                    </g>
                </g>
            </g>
            <g id="Group" mask="url(#mask-2)">
                <g transform="translate(8.127563, 12.251038)">
                    <g>
                        <path d="M0.5975981,0 C0.267597796,0 0,0.267538752 0,0.597598045 L0,0.967383517 C0,1.29744186 0.267597796,1.5649815 0.5975981,1.5649815 C0.927598344,1.5649815 1.1951962,1.29744275 1.1951962,0.967383517 L1.1951962,0.597598045 C1.1951962,0.267538752 0.927598344,0 0.5975981,0 L0.5975981,0 Z" id="Shape" fill="#FFFFFF"></path>
                    </g>
                </g>
            </g>
            <g id="Group" mask="url(#mask-2)">
                <g transform="translate(13.416382, 25.219116)">
                    <g>
                        <path d="M1.58367187,0 C0.710449247,0 0,0.710449103 0,1.5836725 C0,2.45689602 0.710449247,3.167345 1.58367187,3.167345 C2.45689379,3.167345 3.1673431,2.45689602 3.1673431,1.5836725 C3.1673431,0.710449103 2.45689379,0 1.58367187,0 L1.58367187,0 Z M1.5836694,1.97214607 C1.36950928,1.97214607 1.1952515,1.79788838 1.1952515,1.58366929 C1.1952515,1.36945022 1.36950928,1.1952515 1.5836694,1.1952515 C1.79782952,1.1952515 1.9721463,1.36950922 1.9721463,1.58366929 C1.9721463,1.79782934 1.79782952,1.97214607 1.5836694,1.97214607 L1.5836694,1.97214607 Z" id="Shape" fill="#FFFFFF"></path>
                    </g>
                </g>
            </g>
        </g>
    </g>
</svg>