<?xml version="1.0" encoding="UTF-8"?>
<svg width="30px" height="30px" viewBox="0 0 30 30" version="1.1" xmlns="http://www.w3.org/2000/svg" xmlns:xlink="http://www.w3.org/1999/xlink">
    <!-- Generator: Sketch 63.1 (92452) - https://sketch.com -->
    <title>Refrigerator</title>
    <desc>Created with Sketch.</desc>
    <defs>
        <rect id="path-1" x="0" y="0" width="30" height="30"></rect>
    </defs>
    <g id="Refrigerator" stroke="none" stroke-width="1" fill="none" fill-rule="evenodd">
        <g>
            <mask id="mask-2" fill="white">
                <use xlink:href="#path-1"></use>
            </mask>
            <use id="Background" fill="#D8D8D8" opacity="0" xlink:href="#path-1"></use>
            <g id="Group" mask="url(#mask-2)" fill="#FFFFFF">
                <g transform="translate(5.000000, 1.000000)" id="Shape">
                    <path d="M18.6285087,0 L1.00431959,0 C0.450518529,0 0,0.420483798 0,0.93736496 L0,27.0626336 C0,27.5795148 0.450518529,28 1.00431959,28 L18.6285087,28 C19.1823096,28 19.632828,27.5795148 19.632828,27.0626336 L19.632828,0.93736496 C19.632828,0.420483798 19.1823096,0 18.6285087,0 L18.6285087,0 Z M0.9719238,27.0626378 L0.9719238,0.937366461 C0.9719238,0.920675315 0.986437775,0.90712888 1.00432121,0.90712888 L7.7753792,0.90712888 L7.7753792,27.0928745 L1.00432121,27.0928745 C0.986437775,27.0928745 0.9719238,27.0793286 0.9719238,27.0626378 L0.9719238,27.0626378 Z M18.660919,27.0626378 C18.660919,27.0793286 18.6464055,27.0928745 18.6285219,27.0928745 L8.747314,27.0928745 L8.747314,0.90712888 L18.6285219,0.90712888 C18.6464055,0.90712888 18.660919,0.920675315 18.660919,0.937366461 L18.660919,27.0626378 L18.660919,27.0626378 Z"></path>
                    <path d="M6.18792625,8.2246584 C5.91954634,8.2246584 5.7019653,8.4277341 5.7019653,8.67822211 L5.7019653,19.3218509 C5.7019653,19.5723387 5.91954634,19.7754144 6.18792625,19.7754144 C6.45630619,19.7754144 6.6738872,19.5723387 6.6738872,19.3218509 L6.6738872,8.67822211 C6.6738872,8.4277341 6.45630619,8.2246584 6.18792625,8.2246584 L6.18792625,8.2246584 Z"></path>
                    <path d="M10.3347769,8.2246584 C10.066397,8.2246584 9.848816,8.4277341 9.848816,8.67822211 L9.848816,19.3218509 C9.848816,19.5723387 10.066397,19.7754144 10.3347769,19.7754144 C10.6031569,19.7754144 10.8207379,19.5723387 10.8207379,19.3218509 L10.8207379,8.67822211 C10.8207379,8.4277341 10.6031569,8.2246584 10.3347769,8.2246584 L10.3347769,8.2246584 Z"></path>
                    <path d="M4.63280647,11.1274249 L2.04101468,11.1274249 C1.77263475,11.1274249 1.5550537,11.3305006 1.5550537,11.5809886 L1.5550537,16.4190012 C1.5550537,16.669489 1.77263475,16.8725644 2.04101468,16.8725644 L4.63280647,16.8725644 C4.90118657,16.8725644 5.1187677,16.669489 5.1187677,16.4190012 L5.1187677,11.5809886 C5.1187677,11.3305006 4.90118657,11.1274249 4.63280647,11.1274249 L4.63280647,11.1274249 Z M4.1468476,12.0345538 L4.1468476,12.5788302 L2.5269775,12.5788302 L2.5269775,12.0345538 L4.1468476,12.0345538 L4.1468476,12.0345538 Z M2.5269775,15.9654186 L2.5269775,13.4859373 L4.1468476,13.4859373 L4.1468476,15.9654186 L2.5269775,15.9654186 L2.5269775,15.9654186 Z"></path>
                </g>
            </g>
        </g>
    </g>
</svg>