<?xml version="1.0" encoding="UTF-8"?>
<svg width="30px" height="30px" viewBox="0 0 30 30" version="1.1" xmlns="http://www.w3.org/2000/svg" xmlns:xlink="http://www.w3.org/1999/xlink">
    <!-- Generator: Sketch 63.1 (92452) - https://sketch.com -->
    <title>Tablet</title>
    <desc>Created with Sketch.</desc>
    <defs>
        <rect id="path-1" x="0" y="0" width="30" height="30"></rect>
    </defs>
    <g id="Tablet" stroke="none" stroke-width="1" fill="none" fill-rule="evenodd">
        <g>
            <mask id="mask-2" fill="white">
                <use xlink:href="#path-1"></use>
            </mask>
            <use id="Background" fill="#D8D8D8" opacity="0" xlink:href="#path-1"></use>
            <g id="Group" mask="url(#mask-2)">
                <g transform="translate(3.758911, 0.000000)">
                    <g>
                        <g fill="#FFFFFF" id="Shape">
                            <path d="M20.0690482,0 L2.4131478,0 C1.08256999,0 0,1.0825101 0,2.4131475 L0,27.5868522 C0,28.9174908 1.0825103,30 2.4131478,30 L20.0691676,30 C21.3997447,30 22.482254,28.9174908 22.482254,27.5868522 L22.482254,2.4131475 C22.482254,1.0825101 21.3996851,0 20.0690482,0 L20.0690482,0 Z M21.3759425,27.7648483 C21.3759425,28.4458786 20.8218799,29 20.1407904,29 L2.23515153,29 C1.55412111,29 1,28.4458786 1,27.7648483 L1,2.23515146 C1,1.55412118 1.55406055,1 2.23515153,1 L20.1407904,1 C20.8218208,1 21.3759425,1.55412118 21.3759425,2.23515146 L21.3759425,27.7648483 L21.3759425,27.7648483 Z"></path>
                            <path d="M19.6138044,2.270935 L2.86854465,2.270935 C2.53848469,2.270935 2.270935,2.53848488 2.270935,2.86854457 L2.270935,24.1772091 C2.270935,24.5072704 2.53848469,24.77482 2.86854465,24.77482 L19.613808,24.77482 C19.9438691,24.77482 20.211418,24.5072704 20.211418,24.1772091 L20.211418,2.86854457 C20.211418,2.53848488 19.9438644,2.270935 19.6138044,2.270935 L19.6138044,2.270935 Z M19.270935,23.9663833 L3.270935,23.9663833 L3.270935,3.270935 L19.270935,3.270935 L19.270935,23.9663833 L19.270935,23.9663833 Z"></path>
                            <path d="M4.9283447,15.358542 C5.20449445,15.358542 5.4283447,15.0909923 5.4283447,14.7609331 L5.4283447,5.13941857 C5.4283447,4.80935865 5.20449445,4.541809 4.9283447,4.541809 C4.65219495,4.541809 4.4283447,4.80935865 4.4283447,5.13941857 L4.4283447,14.7609331 C4.4283447,15.0909923 4.65219495,15.358542 4.9283447,15.358542 L4.9283447,15.358542 Z"></path>
                            <path d="M4.9283447,18.645435 C5.20449445,18.645435 5.4283447,18.3778859 5.4283447,18.0478256 L5.4283447,16.9123675 C5.4283447,16.5823072 5.20449445,16.314758 4.9283447,16.314758 C4.65219495,16.314758 4.4283447,16.5823072 4.4283447,16.9123675 L4.4283447,18.0478256 C4.4283447,18.3778859 4.65219495,18.645435 4.9283447,18.645435 L4.9283447,18.645435 Z"></path>
                            <path d="M11.2411089,25.159363 C10.3513877,25.159363 9.627563,25.8831879 9.627563,26.7729093 C9.627563,27.6626307 10.3513877,28.3864557 11.2411089,28.3864557 C12.13083,28.3864557 12.8546548,27.6626307 12.8546548,26.7729093 C12.8546548,25.8831879 12.13083,25.159363 11.2411089,25.159363 L11.2411089,25.159363 Z M11.277563,27.4593635 C10.9191344,27.4593635 10.627563,27.1677907 10.627563,26.8093633 C10.627563,26.4509359 10.9191344,26.159363 11.277563,26.159363 C11.6359916,26.159363 11.927563,26.4509359 11.927563,26.8093633 C11.927563,27.1677907 11.6359916,27.4593635 11.277563,27.4593635 L11.277563,27.4593635 Z"></path>
                        </g>
                    </g>
                </g>
            </g>
        </g>
    </g>
</svg>