<?xml version="1.0" encoding="UTF-8"?>
<svg width="30px" height="30px" viewBox="0 0 30 30" version="1.1" xmlns="http://www.w3.org/2000/svg" xmlns:xlink="http://www.w3.org/1999/xlink">
    <!-- Generator: Sketch 63.1 (92452) - https://sketch.com -->
    <title>Washing Machine</title>
    <desc>Created with Sketch.</desc>
    <defs>
        <rect id="path-1" x="0" y="0" width="30" height="30"></rect>
    </defs>
    <g id="Washing-Machine" stroke="none" stroke-width="1" fill="none" fill-rule="evenodd">
        <g>
            <mask id="mask-2" fill="white">
                <use xlink:href="#path-1"></use>
            </mask>
            <use id="Background" fill="#D8D8D8" opacity="0" xlink:href="#path-1"></use>
            <g id="XMLID_691_" mask="url(#mask-2)">
                <g transform="translate(4.281311, 1.000000)" id="Group">
                    <g>
                        <g fill="#FFFFFF">
                            <path d="M10.9374858,25.3749744 C15.521005,25.3749744 19.2499717,21.6460071 19.2499717,17.0624871 C19.2499717,12.478967 15.521005,8.74999987 10.9374858,8.74999987 C6.35396699,8.74999987 2.62499996,12.478967 2.62499996,17.0624871 C2.62499996,21.6460071 6.35396699,25.3749744 10.9374858,25.3749744 L10.9374858,25.3749744 Z M10.9374667,9.62499986 C15.038535,9.62499986 18.3749335,12.9614565 18.3749335,17.0624675 C18.3749335,21.1635363 15.038535,24.4999352 10.9374667,24.4999352 C6.83639875,24.4999352 3.49999995,21.1635363 3.49999995,17.0624675 C3.49999995,12.9613991 6.83639875,9.62499986 10.9374667,9.62499986 L10.9374667,9.62499986 Z" id="Shape"></path>
                            <path d="M10.937484,23.4062212 C14.4354012,23.4062212 17.281218,20.5604611 17.281218,17.0624855 C17.281218,13.5645105 14.4354586,10.7187498 10.937484,10.7187498 C7.43956691,10.7187498 4.59374993,13.5645676 4.59374993,17.0624855 C4.59374993,20.5604036 7.43950982,23.4062212 10.937484,23.4062212 L10.937484,23.4062212 Z M10.9374648,11.5937498 C13.9529307,11.5937498 16.4061798,14.0469997 16.4061798,17.0624659 C16.4061798,20.0779324 13.9529307,22.531182 10.9374648,22.531182 C7.92199924,22.531182 5.46874992,20.0779324 5.46874992,17.0624659 C5.46874992,14.0469997 7.92199924,11.5937498 10.9374648,11.5937498 L10.9374648,11.5937498 Z" id="Shape"></path>
                            <path d="M19.796213,0 L2.0787042,0 C0.932554203,0 0,0.932497588 0,2.0787611 L0,25.9212359 C0,27.0674438 0.932497766,28 2.0787042,28 L19.796213,28 C20.9424204,28 21.8749175,27.0674981 21.8749175,25.9212359 L21.8749175,2.0787611 C21.8749175,0.932497588 20.9424773,0 19.796213,0 L19.796213,0 Z M20.9999372,25.9211953 C20.9999372,26.5849498 20.4599509,27.1249371 19.7961954,27.1249371 L2.07868455,27.1249371 C1.41492947,27.1249371 0.874999987,26.5849508 0.874999987,25.9211953 L0.874999987,6.9999999 L20.9999372,6.9999999 L20.9999372,25.9211953 L20.9999372,25.9211953 Z M20.9999372,6.12500364 L0.874999987,6.12500364 L0.874999987,2.07874167 C0.874999987,1.41498675 1.41498675,0.874999987 2.07868455,0.874999987 L19.7961954,0.874999987 C20.4599499,0.874999987 20.9999372,1.41498675 20.9999372,2.07874167 L20.9999372,6.12500364 L20.9999372,6.12500364 Z" id="Shape"></path>
                            <path d="M3.50003901,1.74999997 C2.53513539,1.74999997 1.75005691,2.53507851 1.75005691,3.50003886 C1.75005691,4.46494279 2.53507852,5.25002139 3.50003901,5.25002139 C4.31394166,5.25002139 4.99981272,4.69144398 5.19464717,3.93757741 L6.12498404,3.93757741 L6.12498404,3.06255756 L5.19464717,3.06255756 C4.99992647,2.30857742 4.3139987,1.74999997 3.50003901,1.74999997 L3.50003901,1.74999997 Z M3.50001936,4.37498192 C3.01756765,4.37498192 2.62505689,3.98247112 2.62505689,3.50001929 C2.62505689,3.01751077 3.01751083,2.62499996 3.50001936,2.62499996 C3.98247111,2.62499996 4.37498192,3.01751077 4.37498192,3.50001929 C4.37498192,3.98247112 3.98247111,4.37498192 3.50001936,4.37498192 L3.50001936,4.37498192 Z" id="Shape"></path>
                            <rect id="Rectangle" x="6.5624999" y="3.06249995" width="1" height="1"></rect>
                            <rect id="Rectangle" x="6.5624999" y="1.74999997" width="1" height="1"></rect>
                            <rect id="Rectangle" x="6.5624999" y="4.37499994" width="1" height="1"></rect>
                            <path d="M14.8749998,5.25002139 L20.1250034,5.25002139 L20.1250034,1.74999997 L14.8749998,1.74999997 L14.8749998,5.25002139 L14.8749998,5.25002139 Z M15.7499428,2.62499996 L19.2499082,2.62499996 L19.2499082,4.37498211 L15.7499428,4.37498211 L15.7499428,2.62499996 L15.7499428,2.62499996 Z" id="Shape"></path>
                            <polygon id="Rectangle" points="13.4345463 14.7466885 9.05964401 19.1215908 8.44095827 18.5029049 12.8158604 14.1280027"></polygon>
                            <polygon id="Rectangle" points="9.31556644 14.1277181 9.93425211 14.7464034 8.62174545 16.0589086 8.00305975 15.4402232"></polygon>
                            <polygon id="Rectangle" points="12.1216884 19.5592119 11.5030028 18.940526 12.8154685 17.6280596 13.4341541 18.2467456"></polygon>
                        </g>
                    </g>
                </g>
            </g>
        </g>
    </g>
</svg>