<?xml version="1.0" encoding="UTF-8"?>
<svg width="30px" height="30px" viewBox="0 0 30 30" version="1.1" xmlns="http://www.w3.org/2000/svg" xmlns:xlink="http://www.w3.org/1999/xlink">
    <!-- Generator: Sketch 63.1 (92452) - https://sketch.com -->
    <title>Wearables</title>
    <desc>Created with Sketch.</desc>
    <defs>
        <rect id="path-1" x="0" y="0" width="30" height="30"></rect>
    </defs>
    <g id="Wearables" stroke="none" stroke-width="1" fill="none" fill-rule="evenodd">
        <g>
            <mask id="mask-2" fill="white">
                <use xlink:href="#path-1"></use>
            </mask>
            <use id="Background" fill="#D8D8D8" opacity="0" xlink:href="#path-1"></use>
            <g id="Group" mask="url(#mask-2)">
                <g transform="translate(6.226379, 0.000000)">
                    <g>
                        <path d="M16.9811727,9.622617 L15.2830659,9.622617 L15.2830659,8.4932811 C15.2830659,7.311855 14.5553909,6.2994723 13.525898,5.8750779 L12.4417971,0.45492186 C12.3890048,0.19072266 12.1565632,0 11.8867963,0 L3.39621137,0 C3.12644532,0 2.89400429,0.19072266 2.84121112,0.45492186 L1.75716792,5.8751367 C0.727617147,6.2995308 0,7.3119138 0,8.4933399 L0,21.5066601 C0,22.688085 0.727675685,23.7004692 1.75716792,24.124863 L2.84121112,29.545077 C2.89400429,29.8092771 3.12644532,30 3.39621137,30 L11.8867989,30 C12.1565639,30 12.3890065,29.8092771 12.4417971,29.545077 L13.5258405,24.124863 C14.5553926,23.700468 15.2830089,22.688085 15.2830089,21.5066601 L15.2830089,20.2969338 C16.2567798,20.043927 16.9811148,19.165314 16.9811148,18.113202 C16.9811148,17.061153 16.2567798,16.18248 15.2830089,15.929472 L15.2830089,14.716992 L16.9811148,14.716992 C17.2937107,14.716992 17.547129,14.4638085 17.547129,14.150976 L17.547129,10.1886909 C17.547129,9.8758005 17.2937107,9.622617 16.9811727,9.622617 L16.9811727,9.622617 Z M3.63979796,0.7 L11.7073806,0.7 L12.6736206,5.5 L2.6736206,5.5 L3.63979796,0.7 L3.63979796,0.7 Z M11.7073866,29.1396 L3.63985466,29.1396 L2.6736206,24.3396 L12.6736206,24.3396 L11.7073866,29.1396 L11.7073866,29.1396 Z M14.3736206,10.0217336 L14.3736206,14.130464 L14.3736206,21.7580728 C14.3736206,22.7307714 13.5828986,23.5217964 12.6110525,23.5217964 L2.63618897,23.5217964 C1.66434333,23.5217964 0.8736206,22.7307673 0.8736206,21.7580721 L0.8736206,8.2637228 C0.8736206,7.29102598 1.66434242,6.5 2.63618897,6.5 L12.6110525,6.5 C13.5828986,6.5 14.3736206,7.29102598 14.3736206,8.2637228 L14.3736206,10.0217336 L14.3736206,10.0217336 Z M15.8490972,18.1132022 C15.8490972,18.530273 15.61982,18.8913859 15.283081,19.0877324 L15.283081,17.138672 C15.61982,17.3350776 15.8490972,17.6961332 15.8490972,18.1132022 L15.8490972,18.1132022 Z M16.78302,14 L15.28302,14 L15.28302,10.5 L16.78302,10.5 L16.78302,14 L16.78302,14 Z" id="Shape" fill="#FFFFFF"></path>
                    </g>
                </g>
            </g>
        </g>
    </g>
</svg>